<svg xmlns="http://www.w3.org/2000/svg" viewBox="0 0 1080 540"><!-- Natural Earth / world-atlas 2.0.2; see docs/homepage.md --><path d="M361.29,510.12L360.40,511.65L359.52,513.00L353.24,512.59L346.53,512.77L342.77,511.77L342.77,511.65L341.13,510.77L347.88,510.88L354.35,511.18L356.59,509.94L358.17,508.89L361.29,510.12M62.37,508.49L56.61,508.90L52.68,507.85L50.92,506.79L50.80,506.61L48.86,505.79L50.68,504.67L56.27,505.14L59.26,506.08L61.55,507.14L62.37,508.49M404.54,504.14L408.23,505.43L409.53,507.26L409.89,508.55L410.00,510.08L405.36,511.02L400.48,511.78L394.84,512.49L388.56,513.08L381.45,512.90L377.51,511.90L378.04,510.66L384.44,509.84L387.02,508.84L388.90,507.55L390.26,506.44L392.08,505.37L394.02,504.14L395.54,504.14L400.01,503.50L404.54,504.14M176.37,490.50L180.24,490.97L183.83,490.45L182.12,491.50L179.30,492.27L175.13,492.03L172.13,490.97L172.78,489.97L176.37,490.50M163.32,490.45L167.91,491.62L166.14,491.50L162.26,491.21L158.15,490.38L160.33,489.74L163.32,490.45M243.06,485.80L246.35,486.21L249.63,485.86L251.39,487.56L249.05,487.33L245.41,487.44L241.71,487.33L237.65,487.51L234.59,486.92L233.01,485.68L234.89,485.15L238.70,485.57L243.06,485.80M334.64,482.87L335.00,484.22L334.47,485.39L333.65,486.51L330.13,486.92L326.77,487.51L322.84,487.45L324.31,486.28L320.77,486.69L317.43,487.10L315.14,486.22L314.96,484.98L318.26,483.81L320.31,483.45L323.78,483.57L324.66,482.04L324.83,480.93L324.77,478.52L326.48,477.11L329.24,476.63L330.83,477.75L331.53,478.87L332.83,480.22L333.82,481.51L334.64,482.87M0.00,524.14L0.17,524.17L2.82,522.42L8.23,523.36L8.58,523.25L9.42,523.00L10.43,522.69L11.31,522.43L11.75,522.30L12.19,522.30L12.51,522.35L16.85,523.60L20.65,522.35L21.33,522.18L30.14,521.65L33.01,522.35L34.41,522.71L38.93,523.71L47.46,524.48L54.21,525.42L65.78,526.12L74.42,525.30L87.18,525.89L94.40,526.83L102.33,525.94L110.68,525.12L111.33,523.71L99.51,523.59L89.81,522.89L87.29,521.71L79.24,521.06L79.77,519.71L80.88,518.48L82.01,517.36L81.41,516.13L76.42,515.31L74.13,514.24L69.49,513.31L76.78,513.48L83.71,513.01L88.05,514.01L93.40,513.13L98.33,512.02L100.74,511.02L99.68,509.78L95.81,508.96L91.40,508.08L85.23,507.90L79.83,507.49L74.01,507.19L72.07,506.07L68.19,505.14L65.85,504.08L64.91,500.67L66.38,500.96L69.08,501.90L74.01,501.61L78.78,501.20L81.24,502.49L86.00,502.20L90.00,501.55L93.76,500.73L97.16,499.73L101.68,499.43L101.56,498.32L100.52,497.20L101.39,496.14L105.27,495.61L107.03,496.61L111.62,496.03L115.09,495.26L119.37,495.20L123.42,494.91L127.48,494.20L130.71,493.55L134.35,492.91L136.71,493.09L138.76,493.32L143.23,492.91L147.23,493.44L151.34,493.38L155.27,492.97L159.32,493.26L163.79,493.55L167.96,493.44L172.32,493.50L176.78,493.55L180.89,493.44L183.95,492.55L187.59,492.09L191.36,492.73L194.93,492.20L198.17,491.15L200.10,492.09L201.16,493.14L203.11,494.14L206.22,493.26L209.80,494.38L213.85,494.73L217.32,495.55L221.55,495.38L225.38,494.85L229.89,494.96L233.95,495.38L238.07,495.90L239.65,494.61L237.71,493.61L236.24,492.55L232.36,492.32L230.66,491.20L230.01,490.09L228.95,487.85L231.25,488.26L235.18,488.44L239.06,488.26L242.59,488.73L245.65,489.62L246.93,490.67L250.99,490.85L254.87,490.44L258.99,489.85L262.68,489.50L265.74,490.20L269.73,489.97L272.31,487.68L274.73,489.03L278.20,489.56L281.96,489.26L284.42,490.44L288.36,490.56L292.00,490.91L295.59,491.56L297.94,490.44L299.11,489.38L302.11,490.56L306.23,490.26L309.28,490.91L311.33,491.91L315.33,491.61L318.44,490.97L321.50,490.20L325.14,489.79L329.37,489.44L333.19,489.03L336.13,488.38L337.89,487.44L338.59,486.15L338.25,484.91L337.31,483.74L336.25,482.56L335.31,481.39L334.54,480.33L334.37,479.15L334.66,477.97L336.07,476.86L337.24,475.62L337.72,474.45L337.13,473.16L336.78,471.98L338.25,470.63L339.89,469.75L341.83,468.63L343.89,467.69L346.29,466.81L347.47,465.51L349.11,464.69L350.99,463.92L353.88,463.75L355.76,462.81L357.87,462.22L360.33,461.87L362.52,461.11L364.21,460.16L366.57,459.81L368.33,460.58L367.21,461.57L364.16,462.46L362.86,463.10L360.64,462.64L358.16,462.93L356.11,463.64L353.93,464.40L352.46,465.28L352.05,466.45L352.23,467.57L353.64,468.57L351.59,469.28L348.77,469.51L347.12,470.51L345.36,471.45L343.48,472.74L343.00,473.86L344.06,475.10L345.65,476.04L348.12,476.74L350.41,477.68L351.64,478.86L352.29,479.98L353.17,481.15L354.58,482.15L355.46,483.27L355.87,486.03L356.75,487.15L356.99,488.32L357.93,489.50L357.52,491.09L355.87,492.32L354.11,493.32L350.12,493.73L348.77,494.79L346.94,495.79L342.42,496.90L338.42,497.38L334.66,498.02L330.60,498.67L328.19,499.91L323.38,500.02L318.10,499.91L313.33,500.14L308.28,500.14L309.22,501.32L313.80,501.84L317.16,502.67L319.04,503.72L315.69,504.66L310.51,504.37L306.23,505.14L306.04,506.37L305.92,507.55L309.46,508.54L310.10,509.66L313.92,510.78L320.27,511.25L325.67,512.07L329.96,513.01L335.43,513.96L342.88,514.42L350.24,515.24L355.35,516.13L360.93,517.13L363.87,518.54L365.34,519.66L368.97,518.60L373.91,517.72L379.14,516.77L385.37,516.01L390.72,515.19L398.18,515.13L405.52,515.54L411.57,516.25L413.51,514.95L417.68,514.07L425.27,514.01L431.21,513.37L436.84,512.72L443.07,512.30L449.71,511.78L454.35,511.02L452.23,509.95L450.95,508.90L450.95,507.78L445.13,507.90L438.96,508.37L433.08,508.37L432.25,507.25L432.67,505.02L434.02,504.37L438.31,503.67L443.37,502.96L447.01,502.08L450.65,501.20L453.36,500.02L457.46,499.49L461.52,499.08L463.57,498.84L468.22,498.73L472.62,498.32L476.33,497.73L479.97,497.02L483.26,496.32L487.43,495.38L490.08,494.38L492.90,493.50L493.78,492.32L490.61,491.61L491.66,490.38L493.66,489.44L496.77,488.85L500.07,488.15L503.12,487.21L505.47,486.03L506.94,484.62L509.12,483.79L512.69,483.97L514.16,484.97L517.75,485.09L517.87,483.97L519.40,482.80L522.63,483.09L523.39,484.21L526.97,484.38L530.86,483.85L534.62,483.50L538.02,483.68L539.31,484.91L542.61,483.92L545.66,483.38L549.07,482.97L552.41,482.56L555.47,481.85L558.82,481.39L561.41,480.74L563.23,479.68L565.46,480.45L568.57,480.04L570.75,481.44L572.45,482.50L575.86,481.92L577.21,480.74L580.27,479.91L584.21,480.09L585.38,481.21L587.85,480.09L591.08,479.74L594.60,479.63L597.78,479.68L601.12,480.04L604.36,480.21L605.77,481.21L607.71,482.09L610.99,481.56L614.53,481.44L617.93,481.44L621.28,481.39L624.28,480.98L627.45,480.62L630.10,479.80L632.92,479.27L635.98,478.98L638.26,478.15L639.91,476.51L641.61,475.51L644.72,475.98L645.90,477.04L648.48,477.74L651.60,477.51L653.72,478.56L655.94,479.33L659.00,478.62L660.06,477.33L662.76,476.80L665.88,475.80L668.82,475.39L672.34,474.80L674.69,474.16L677.16,473.45L679.51,472.81L682.33,473.16L685.03,472.10L686.97,471.28L689.79,471.33L692.27,470.63L692.85,469.57L695.38,468.75L697.84,468.16L700.84,467.69L703.61,467.45L706.24,467.63L709.07,467.93L711.48,468.75L711.77,470.04L714.42,471.04L716.23,471.86L719.82,472.22L721.81,473.04L724.29,473.86L727.16,474.04L729.57,473.45L732.16,472.22L734.98,472.86L737.92,473.22L740.74,473.57L743.67,473.80L746.67,473.80L749.14,476.92L749.02,477.68L748.66,479.04L745.79,479.80L743.44,480.91L743.85,482.09L747.19,482.03L746.78,483.21L745.26,484.33L743.85,485.56L746.14,486.50L749.60,486.79L753.07,486.27L754.72,485.09L755.72,483.97L757.37,483.03L759.25,482.15L760.00,481.09L761.59,479.63L763.47,479.33L766.88,479.21L769.87,478.86L772.93,478.39L774.40,477.21L775.29,476.10L777.34,474.98L780.28,474.21L782.80,473.63L784.46,472.63L786.15,472.10L788.33,471.63L791.32,471.92L794.02,471.63L796.96,471.28L800.26,471.45L802.43,470.63L803.96,468.63L805.07,469.45L806.49,470.87L809.01,471.45L811.89,471.69L814.77,471.33L817.83,471.57L820.65,471.63L822.53,471.33L825.05,471.51L827.34,472.16L830.04,471.74L833.28,471.74L836.04,471.33L839.16,471.74L841.16,470.74L842.68,469.75L844.74,468.92L848.50,466.69L850.43,467.10L852.72,467.93L854.72,468.98L858.54,470.81L861.48,470.87L864.25,470.87L867.48,470.51L870.70,470.10L873.18,469.28L875.23,468.39L878.58,468.28L880.81,467.63L883.17,468.22L884.69,469.16L886.81,470.10L890.10,469.98L892.15,470.74L895.74,471.51L899.50,471.81L902.61,471.57L904.96,470.63L906.96,469.69L909.66,469.45L912.37,469.87L915.48,470.16L918.30,469.69L921.00,469.69L923.65,469.98L926.41,470.28L929.11,469.75L932.34,469.28L935.40,469.16L938.81,469.16L941.56,468.87L944.28,468.63L945.10,467.16L945.21,465.93L947.09,466.75L947.62,468.10L948.62,469.34L949.86,470.33L952.39,470.87L955.79,470.69L959.73,470.63L962.43,470.45L966.36,470.45L969.19,470.39L973.12,470.51L976.47,470.74L978.59,471.69L978.00,472.81L979.94,473.68L983.17,474.39L986.51,475.16L990.40,475.68L994.45,476.15L997.51,476.62L1000.91,476.69L1002.85,475.68L1005.50,476.51L1007.79,477.45L1010.44,478.15L1014.08,478.45L1017.54,478.80L1019.01,479.98L1022.42,480.68L1024.71,481.74L1028.06,482.21L1031.53,482.15L1034.76,482.33L1038.34,482.27L1041.93,482.50L1045.28,482.92L1048.39,483.62L1051.51,484.21L1053.62,485.09L1053.27,486.27L1051.68,487.32L1050.33,488.67L1049.27,489.73L1047.86,490.97L1043.93,491.44L1042.17,492.50L1038.28,493.14L1036.93,494.32L1034.88,495.44L1032.71,496.38L1031.46,497.61L1030.71,498.73L1030.41,500.08L1030.47,501.20L1032.18,502.37L1032.83,503.49L1034.23,504.55L1039.81,504.96L1040.99,506.25L1035.58,506.72L1031.00,507.37L1025.30,507.49L1022.77,509.19L1022.24,510.60L1020.96,511.72L1019.37,512.84L1023.36,513.83L1024.89,515.07L1027.47,516.18L1031.12,517.18L1035.29,518.13L1039.81,519.07L1046.68,520.01L1048.22,521.48L1056.86,522.13L1057.43,522.35L1059.67,523.24L1067.96,522.48L1074.83,523.42M0.00,524.14M336.75,431.55L340.65,433.35L344.85,434.10L343.50,435.60L340.65,435.75L339.12,434.69L338.13,435.91L335.56,436.84L332.31,436.50L330.13,435.60L326.98,435.16L323.20,433.48L320.15,431.87L316.01,428.51L318.48,429.14L322.70,431.15L326.68,432.22L328.23,430.85L329.20,428.79L331.96,427.55L334.10,427.91L335.25,429.30L336.75,431.55M364.35,423.30L366.75,424.65L365.85,425.70L361.80,426.60L360.45,425.55L357.90,426.90L356.40,425.55L360.00,423.75L362.55,424.50L364.35,423.30M750.85,419.13L746.23,419.32L746.16,417.73L746.60,416.49L746.81,415.87L748.74,416.82L751.58,417.20L751.68,417.76L750.85,419.13M976.19,392.38L979.09,393.41L980.73,393.00L983.07,392.43L984.86,392.62L985.08,396.19L984.05,397.22L983.74,399.64L982.69,398.81L980.61,400.91L979.99,400.74L978.14,400.65L976.30,398.08L975.89,396.10L974.16,393.49L974.23,392.11L976.19,392.38M1059.06,392.76L1059.74,394.00L1061.88,392.78L1062.74,394.05L1062.74,395.31L1061.63,396.70L1059.66,398.91L1058.13,400.12L1059.24,401.56L1056.93,401.60L1054.36,402.73L1053.55,404.69L1051.85,407.73L1049.49,409.07L1048.00,409.92L1045.23,409.86L1043.29,408.87L1040.03,408.66L1039.53,407.56L1041.14,405.33L1044.91,402.37L1046.84,401.81L1049.00,400.67L1051.57,399.09L1053.38,397.54L1054.71,395.30L1055.85,394.54L1056.29,392.87L1058.40,391.48L1059.06,392.76M1063.83,378.47L1066.01,381.63L1066.07,379.58L1067.43,380.40L1067.87,382.67L1070.29,383.64L1072.32,383.89L1074.03,382.74L1075.55,383.09L1074.83,385.75L1073.91,387.50L1071.62,387.44L1070.82,388.35L1071.10,389.64L1070.66,390.20L1069.52,391.82L1068.03,393.87L1065.72,395.07L1065.20,394.28L1063.95,393.85L1065.68,391.38L1064.70,389.72L1061.47,388.53L1061.55,387.44L1063.72,386.39L1064.23,384.08L1064.09,382.14L1062.87,380.13L1062.96,379.60L1061.52,378.37L1059.17,375.71L1057.90,373.59L1059.03,373.35L1060.66,375.02L1062.99,375.80L1063.83,378.47M1041.36,336.48L1040.22,337.20L1038.57,336.39L1036.42,335.04L1034.49,333.45L1032.50,331.34L1032.09,330.32L1033.38,330.36L1035.06,331.38L1036.38,332.40L1037.34,333.24L1039.80,335.10L1041.36,336.48M1075.12,322.02L1076.16,322.89L1075.66,324.45L1073.80,324.86L1072.15,324.49L1071.86,323.17L1073.01,322.14L1074.37,322.52L1075.12,322.02M0.00,319.67M1078.09,320.40L1076.18,321.03L1075.79,319.92L1077.29,319.30L1078.24,319.13M0.00,318.20M0.00,318.20L0.00,319.67M0.00,318.20L0.62,318.06L0.25,319.51L0.00,319.67M1043.54,319.40L1042.55,319.80L1041.54,318.48L1041.65,317.68L1043.54,319.40M1041.32,314.80L1041.81,317.22L1041.00,316.84L1040.37,317.01L1039.95,316.18L1039.89,313.88L1041.32,314.80M690.17,310.67L690.66,314.28L691.43,315.68L691.13,317.12L690.60,318.00L689.59,316.24L689.01,317.13L689.59,319.35L689.33,320.62L688.50,321.32L688.30,323.86L687.12,327.36L685.64,331.49L683.79,337.18L682.64,341.34L681.29,344.82L678.85,345.53L676.23,346.80L674.50,346.04L672.12,344.97L671.29,343.38L671.10,340.72L670.04,338.33L669.76,336.17L670.30,334.01L671.68,333.49L671.69,332.49L673.13,330.22L673.40,328.31L672.70,326.88L672.13,324.99L671.89,322.23L672.93,320.55L673.34,318.65L674.83,318.54L676.51,317.92L677.62,317.38L678.94,317.34L680.64,315.63L683.12,313.78L684.01,312.27L683.60,310.99L684.88,311.35L686.53,309.27L686.60,307.46L687.59,306.12L688.63,307.41L689.42,308.69L690.17,310.67M970.68,311.29L971.76,313.65L973.69,312.51L974.69,313.78L976.12,314.96L975.81,316.29L976.46,318.86L976.91,320.35L977.67,320.72L978.48,323.28L978.19,324.84L979.16,326.87L982.41,328.44L984.54,329.87L986.55,331.17L986.15,331.90L987.86,333.78L989.03,337.03L990.23,336.37L991.45,337.67L992.18,337.21L992.70,340.39L994.83,342.23L996.22,343.38L998.57,345.80L999.41,348.21L999.49,349.93L999.28,351.78L1000.71,354.33L1000.53,356.98L1000.01,358.38L999.20,361.05L999.27,362.77L998.68,364.92L997.35,367.65L995.13,369.12L994.03,371.45L993.03,372.93L992.14,375.52L990.99,377.02L990.23,379.26L989.84,381.33L989.99,382.28L988.27,383.32L984.92,383.43L982.14,384.66L980.77,385.82L978.95,387.11L976.47,385.78L974.63,385.25L975.10,383.69L973.46,384.26L970.83,386.43L968.24,385.62L966.53,385.14L964.82,384.93L961.91,384.06L959.98,382.21L959.42,379.93L958.73,378.42L957.25,377.20L954.36,376.84L955.35,375.38L954.62,373.16L953.15,375.23L950.49,375.78L952.06,374.12L952.52,372.39L953.67,370.92L953.43,368.70L950.99,371.26L949.11,372.28L947.97,374.67L945.63,373.44L945.72,371.85L943.84,369.67L942.26,368.55L942.82,367.85L938.97,366.03L936.87,365.95L933.98,364.49L928.60,364.77L924.73,365.84L921.30,366.84L918.44,366.65L915.27,368.19L912.66,368.88L912.09,370.45L910.98,371.67L908.43,371.74L906.55,372.01L903.89,371.47L901.74,371.79L899.68,371.93L897.90,373.53L897.02,373.39L895.51,374.24L894.08,375.19L891.88,375.08L889.87,375.08L886.69,373.16L885.08,372.59L885.14,370.87L886.63,370.46L887.14,369.78L887.03,368.70L887.40,366.62L887.07,364.84L885.48,361.80L884.99,360.09L885.12,358.39L883.92,356.43L883.85,355.55L882.52,354.35L882.14,352.00L880.44,349.63L880.01,348.35L881.33,349.65L880.33,346.86L881.81,347.73L882.70,348.90L882.65,347.36L881.16,345.00L880.88,344.05L880.18,343.15L880.51,341.42L881.12,340.68L881.53,339.18L881.21,337.42L882.44,335.27L882.67,337.55L883.95,335.49L886.38,334.48L887.84,333.21L890.13,332.10L891.49,331.87L892.33,332.24L894.69,331.12L896.51,330.79L896.96,330.13L897.76,329.86L899.41,329.93L902.57,329.05L904.20,327.72L904.96,326.12L906.72,324.59L906.86,323.40L906.94,321.77L909.03,319.22L910.30,321.81L911.58,321.21L910.51,319.79L911.45,318.33L912.77,318.98L913.14,316.70L914.78,315.23L915.50,314.04L917.02,313.53L917.06,312.69L918.38,313.04L918.43,312.29L919.75,311.86L921.20,311.45L923.41,312.83L925.08,314.61L926.95,314.63L928.86,314.91L928.23,313.26L929.66,310.86L931.02,310.07L930.55,309.32L931.85,307.61L933.67,306.55L935.20,306.91L937.73,306.34L937.68,304.81L935.47,303.82L937.07,303.38L939.06,304.13L940.66,305.36L943.18,306.13L944.04,305.82L945.90,306.75L947.64,305.89L948.78,306.15L949.48,305.57L950.85,307.06L950.05,308.66L948.92,309.87L947.88,309.97L948.23,311.17L947.35,312.67L946.28,314.15L946.50,314.99L948.89,316.65L951.20,317.61L952.74,318.65L954.91,320.42L955.76,320.42L957.32,321.19L957.79,322.12L960.65,323.13L962.62,322.11L963.22,320.50L963.82,319.17L964.19,317.52L965.11,315.13L964.69,313.68L964.90,312.81L964.56,311.09L964.96,308.83L965.53,308.22L965.07,307.22L965.79,305.63L966.35,303.98L966.43,303.13L967.55,302.00L968.39,303.47L968.60,305.35L969.35,305.71L969.47,306.98L970.56,308.50L970.79,310.20L970.68,311.29M1026.36,301.45L1027.20,302.48L1025.10,302.46L1023.96,300.62L1025.75,301.34L1026.36,301.45M902.14,300.72L900.88,300.77L896.91,298.67L899.70,298.08L901.28,299.00L902.33,299.91L902.14,300.72M1022.55,299.62L1021.39,299.69L1019.55,299.38L1018.93,298.92L1019.11,297.73L1021.09,298.20L1022.07,298.83L1022.55,299.62M1025.04,298.80L1024.58,299.35L1022.36,296.75L1021.74,294.96L1022.76,294.96L1023.84,297.36L1025.04,298.80M913.31,300.42L910.74,301.08L910.38,300.72L910.65,299.70L911.94,297.87L914.91,296.68L915.26,295.97L917.84,295.30L919.93,295.19L920.87,294.82L922.01,295.19L920.90,296.01L917.78,297.32L915.27,298.18L913.31,300.42M893.70,294.28L894.78,295.09L896.64,294.84L897.38,296.12L893.91,296.72L891.83,297.12L890.22,297.10L891.25,295.37L892.90,295.35L893.70,294.28M908.71,294.28L908.27,295.95L903.76,296.80L899.77,296.43L899.77,295.34L902.14,294.71L904.02,295.61L906.02,295.38L908.71,294.28M1019.63,295.01L1019.76,295.62L1017.40,294.34L1015.76,293.26L1014.64,292.26L1015.08,291.96L1016.46,292.68L1018.93,294.06L1019.63,295.01M1012.62,292.05L1012.01,292.21L1010.71,291.53L1009.48,290.30L1009.63,289.80L1011.42,291.07L1012.62,292.05M865.87,290.33L871.62,290.63L872.28,289.39L877.84,290.84L878.93,292.78L883.44,293.33L887.12,295.11L883.70,296.25L880.39,295.05L877.68,295.13L874.57,294.90L871.76,294.37L868.29,293.22L866.08,292.92L864.83,293.30L859.36,292.07L858.85,290.78L856.09,290.55L858.15,287.69L861.79,287.87L864.21,289.04L865.46,289.27L865.87,290.33M944.18,288.64L942.63,290.68L942.34,288.43L942.87,287.35L943.50,286.33L944.18,287.21L944.18,288.64M1007.64,290.46L1006.80,290.76L1005.50,289.61L1004.18,287.70L1003.55,285.42L1003.96,285.13L1004.28,286.02L1005.19,286.70L1006.65,288.60L1008.06,289.62L1007.64,290.46M995.95,286.43L994.38,286.68L993.90,287.52L992.26,288.25L990.73,288.95L989.13,288.95L986.67,288.08L984.96,287.24L985.21,286.31L987.90,286.75L989.54,286.52L989.99,285.08L990.42,285.00L990.72,286.60L992.42,286.37L993.26,285.34L994.94,284.27L994.61,282.50L996.41,282.45L997.01,282.94L996.96,284.60L995.95,286.43M921.75,280.38L920.62,281.37L918.55,280.82L917.97,279.53L921.00,279.39L921.75,280.38M931.41,279.28L932.50,281.58L929.98,280.34L927.47,280.09L925.77,280.29L923.70,280.18L924.40,278.53L928.12,278.41L931.41,279.28M999.42,283.50L998.48,284.30L997.92,282.53L997.22,281.37L995.86,280.39L994.15,279.11L991.99,278.22L992.82,277.50L994.44,278.34L995.46,279.00L996.72,279.72L997.92,280.98L999.06,281.94L999.42,283.50M942.43,273.46L943.27,278.31L946.37,280.10L948.88,276.92L952.32,275.11L954.99,275.11L957.56,276.15L959.78,277.23L963.00,277.80L968.21,279.87L973.75,281.59L975.82,283.12L977.49,284.63L977.95,286.40L982.94,288.25L983.67,289.84L980.91,290.17L981.58,292.16L984.26,294.13L986.20,297.32L987.92,297.21L987.80,298.54L990.12,299.05L989.21,299.62L992.40,300.88L992.08,301.75L990.09,301.96L989.34,301.18L986.77,300.85L983.74,300.39L981.41,298.48L979.70,296.83L978.14,294.20L974.23,292.89L971.70,293.75L969.86,294.74L970.24,296.95L967.88,297.98L966.21,297.48L963.10,297.35L960.43,294.89L957.39,294.29L956.64,295.14L952.84,295.23L954.11,292.79L956.00,291.96L955.23,288.70L953.78,286.18L947.97,283.64L945.50,283.39L940.99,280.62L940.11,282.07L938.95,282.34L938.27,281.24L938.26,279.94L935.97,278.46L939.20,277.38L941.34,277.44L941.09,276.64L936.69,276.64L935.51,274.85L932.83,274.30L931.56,272.81L935.60,272.09L937.14,271.11L941.95,272.34L942.43,273.46M915.72,265.74L913.31,268.72L911.05,269.29L908.17,268.71L903.17,268.86L900.55,269.29L900.12,271.56L902.80,274.23L904.42,272.87L910.02,271.85L909.78,273.23L908.47,272.79L907.17,274.55L904.52,275.72L907.36,279.56L906.82,280.59L909.51,284.05L909.49,286.02L907.89,286.90L906.71,285.85L908.16,283.39L905.21,284.56L904.47,283.72L904.85,282.57L902.69,280.81L902.92,277.88L900.91,278.79L901.17,282.29L901.29,286.59L899.39,287.02L898.10,286.14L898.96,283.38L898.49,280.48L897.23,280.46L896.30,278.41L897.54,276.44L897.97,274.06L899.48,269.54L900.10,268.30L902.66,266.07L905.01,266.96L908.79,267.37L912.23,267.25L915.20,265.07L915.72,265.74M926.07,266.60L925.90,269.23L924.36,268.93L923.91,270.75L925.14,272.34L924.29,272.70L923.09,270.80L922.20,266.97L922.80,264.57L923.80,263.48L924.01,265.11L925.79,265.38L926.07,266.60M857.45,287.56L854.13,287.62L851.60,285.11L847.75,282.66L846.47,280.84L844.20,278.40L842.71,276.15L840.42,271.95L837.79,269.45L836.91,266.87L835.80,264.53L833.10,262.64L831.53,260.07L829.28,258.40L826.14,255.09L825.88,253.56L827.81,253.68L832.45,254.26L835.11,257.19L837.43,259.23L839.08,260.48L841.92,263.70L844.98,263.75L847.50,265.80L849.23,268.32L851.51,269.69L850.31,272.14L852.03,273.18L853.11,273.25L853.62,275.35L854.67,277.02L856.87,277.28L858.33,279.18L857.57,282.92L857.45,287.56M893.62,264.52L896.99,267.29L893.44,267.65L892.43,269.69L892.56,272.41L889.68,274.46L889.60,277.45L888.45,282.04L888.01,280.97L884.59,282.32L883.41,280.49L881.27,280.32L879.77,279.36L876.20,280.43L875.11,278.99L873.15,279.15L870.67,278.80L870.21,274.78L868.72,273.94L867.27,271.38L866.86,268.75L867.21,265.97L868.99,263.98L871.19,265.01L873.50,264.45L874.11,261.91L875.39,261.34L878.99,260.69L881.14,258.32L882.62,256.42L883.81,255.30L886.35,253.66L888.67,251.57L890.18,249.23L891.39,249.22L892.93,250.73L893.07,252.04L895.05,252.88L897.54,253.78L897.33,254.95L895.32,255.10L895.86,256.57L893.64,257.59L891.94,260.29L894.14,263.14L893.62,264.52M919.13,244.76L919.43,246.75L919.61,248.43L918.59,251.18L917.49,248.12L916.09,249.64L917.05,251.85L916.19,253.26L912.66,251.52L911.82,249.34L912.73,247.92L910.83,246.50L909.89,247.74L908.47,247.63L906.26,249.30L905.76,248.42L906.94,245.89L908.83,245.05L910.46,243.92L911.52,245.28L913.81,244.46L914.29,243.12L916.41,243.04L916.24,240.72L918.67,242.14L918.92,243.65L919.13,244.76M783.66,251.41L781.04,252.09L779.62,249.71L779.09,245.40L780.45,240.53L782.52,242.19L783.92,244.31L785.36,247.43L784.91,250.56L783.66,251.41M357.19,239.67L354.69,240.00L354.15,239.73L355.02,238.90L354.96,237.72L356.68,237.33L357.31,237.44L357.19,239.67M911.95,239.16L910.87,240.15L909.93,242.05L908.99,242.93L907.14,240.86L907.76,240.06L908.52,239.22L908.84,237.35L910.49,237.18L910.02,239.20L912.23,236.30L911.95,239.16M895.51,242.05L891.53,244.90L893.00,242.80L895.16,240.95L896.96,238.87L898.54,235.89L899.07,238.34L897.09,239.99L895.51,242.05M905.65,234.32L907.45,235.25L909.36,235.25L909.30,236.50L907.91,237.78L906.01,238.68L905.90,237.28L906.12,235.75L905.65,234.32M916.51,233.51L917.35,236.86L915.04,236.06L915.09,237.07L915.83,238.92L914.40,239.60L914.28,237.49L913.38,237.33L912.91,235.52L914.67,235.75L914.63,234.62L912.80,232.33L915.68,232.39L916.51,233.51M904.58,230.79L903.79,233.38L902.50,231.89L900.97,229.60L903.54,229.71L904.58,230.79M903.97,214.49L905.82,215.34L906.73,214.57L907.01,215.33L906.52,216.57L907.54,218.72L906.76,221.21L904.98,222.21L904.52,224.62L905.19,227.02L906.78,227.35L908.11,226.99L911.85,228.66L911.56,230.29L912.54,231.01L912.23,232.39L909.90,230.92L908.79,229.34L908.02,230.44L906.11,228.65L903.38,229.09L901.88,228.43L902.04,227.19L902.98,226.42L902.08,225.73L901.69,226.81L900.21,225.09L899.77,223.78L899.65,220.91L900.86,221.90L901.17,217.20L902.14,214.48L903.97,214.49M343.23,215.32L342.46,216.07L340.20,216.05L338.44,216.16L338.27,214.88L338.70,214.44L341.15,214.45L342.69,214.72L343.23,215.32M309.29,216.39L308.39,216.90L306.70,216.41L304.98,215.32L305.35,214.64L306.60,214.43L307.30,214.53L309.32,214.80L310.90,215.52L311.40,216.34L309.29,216.39M322.26,210.39L324.87,210.86L325.23,210.35L327.58,210.36L329.36,211.13L330.15,211.06L330.69,212.12L332.33,212.06L332.23,212.96L333.57,213.06L335.04,214.16L333.93,215.38L332.50,214.73L331.13,214.86L330.14,214.72L329.60,215.26L328.45,215.45L327.99,214.72L326.99,215.15L325.80,217.21L325.03,216.73L324.88,215.87L322.88,215.36L321.47,215.57L319.64,215.35L318.24,215.91L316.63,214.97L316.89,214.01L319.65,214.42L321.92,214.66L323.00,214.00L321.63,212.70L321.65,211.55L319.76,211.08L320.43,210.25L322.26,210.39M871.02,213.97L868.43,215.41L865.96,214.48L865.88,211.89L867.36,210.54L870.64,209.70L872.36,209.77L873.03,210.91L871.71,212.23L871.02,213.97M73.38,212.75L72.93,213.25L72.19,212.82L72.27,211.99L71.78,210.89L71.93,210.56L72.45,210.07L72.24,209.48L72.41,209.20L72.64,209.25L73.80,209.76L74.33,210.02L74.81,210.42L75.58,211.47L75.50,211.64L74.34,212.28L73.38,212.75M71.77,208.07L70.75,208.28L70.24,207.65L69.90,207.41L69.87,207.22L70.16,206.96L71.23,207.25L72.02,207.71L71.77,208.07M69.73,206.47L69.63,206.79L68.02,206.71L68.25,206.34L69.73,206.47M67.04,206.03L66.87,206.21L66.67,206.17L65.62,206.06L65.24,205.38L65.12,205.26L65.92,204.85L66.17,205.04L67.04,206.03M61.96,204.05L61.60,204.35L60.60,203.81L60.75,203.59L61.22,203.29L61.91,203.35L61.96,204.05M300.97,201.70L302.15,202.80L304.96,202.47L306.02,203.17L308.56,205.02L310.43,206.38L311.42,206.34L313.20,206.95L312.99,207.80L315.20,207.92L317.47,209.15L317.11,209.85L315.11,210.23L313.10,210.38L311.03,210.14L306.73,210.43L308.74,208.76L307.52,207.98L305.59,207.78L304.55,206.91L303.84,205.21L302.14,205.32L299.35,204.52L298.45,203.89L294.54,203.42L293.49,202.84L294.62,202.09L291.67,201.94L289.52,203.50L288.28,203.54L287.84,204.27L286.35,204.60L285.08,204.31L286.66,203.38L287.30,202.30L288.67,201.64L290.20,201.05L292.47,200.76L293.19,200.43L295.78,200.65L298.15,200.68L300.97,201.70M307.39,198.72L306.66,198.87L305.90,197.14L304.78,196.28L305.43,194.37L306.33,194.49L307.38,196.98L307.39,198.72M903.53,201.63L902.24,204.09L900.66,201.56L900.32,199.33L902.08,196.38L904.49,194.11L905.86,195.01L905.33,196.82L903.53,201.63M306.54,190.26L303.27,190.74L303.06,189.63L304.47,189.39L306.45,189.48L306.54,190.26M309.00,190.23L308.48,192.36L307.93,191.98L307.98,190.41L306.64,189.22L306.63,188.88L309.00,190.23M943.92,167.55L944.30,168.58L942.61,170.39L941.38,169.43L939.84,170.13L939.05,171.89L937.09,171.03L937.11,169.61L938.78,167.82L940.48,168.17L941.72,166.91L943.92,167.55M643.73,162.99L641.70,164.26L641.93,164.82L642.01,165.07L638.93,166.29L637.47,165.90L636.77,164.69L638.20,164.58L638.41,164.57L638.84,163.84L641.00,163.88L643.73,162.99M611.10,162.88L612.74,163.90L615.08,163.72L617.31,163.94L617.24,164.46L618.87,164.10L618.49,164.99L614.17,165.24L614.20,164.74L610.54,164.16L611.10,162.88M586.56,155.31L585.48,157.67L585.93,158.60L585.30,160.14L583.00,159.01L581.48,158.69L577.30,157.16L577.71,155.62L581.22,155.89L584.29,155.57L586.56,155.31M567.63,146.37L569.42,148.50L569.00,152.47L567.64,152.28L566.42,153.28L565.29,152.49L565.17,148.87L564.48,147.15L566.13,147.30L567.63,146.37M962.93,158.57L961.80,160.97L962.32,162.47L960.76,164.59L956.92,166.00L951.65,166.18L947.37,169.61L945.37,168.45L945.24,166.21L940.02,166.87L936.47,168.29L932.96,168.34L936.00,170.55L933.99,175.65L932.06,176.91L930.60,175.75L931.35,173.04L929.45,172.17L928.23,170.11L931.07,169.19L932.63,167.30L935.66,165.75L937.85,163.70L943.82,162.80L947.03,163.42L950.17,158.09L952.17,159.52L956.58,156.52L958.28,155.35L960.16,151.68L959.65,148.31L960.92,146.41L964.10,145.86L965.75,150.02L965.65,152.46L962.88,155.48L962.93,158.57M568.68,143.54L567.69,145.86L566.33,145.25L565.63,143.23L566.24,142.12L568.17,140.97L568.68,143.54M971.73,137.48L973.83,138.12L975.96,136.85L976.63,140.21L972.18,141.04L969.55,144.02L964.84,141.96L963.20,145.24L959.87,145.29L959.45,142.31L960.94,140.00L964.14,139.83L965.01,135.68L965.91,133.35L969.43,136.47L971.73,137.48M349.01,130.35L351.19,130.75L353.96,130.67L352.48,131.90L351.38,132.09L347.57,130.82L346.82,129.82L347.96,128.89L349.01,130.35M354.58,122.68L353.12,122.74L349.23,121.80L346.45,120.38L347.48,120.13L351.42,120.88L354.49,122.14L354.58,122.68M169.48,124.47L167.96,124.89L163.04,123.52L162.13,122.46L159.45,121.41L158.91,120.56L155.82,120.01L154.67,118.38L154.93,117.69L158.07,118.34L159.92,118.80L162.74,119.12L163.75,120.15L165.24,121.57L168.23,122.81L169.48,124.47M371.60,117.94L369.61,120.56L371.57,119.55L373.59,120.19L372.53,121.24L375.20,122.06L376.58,121.33L379.57,122.25L378.64,124.45L380.74,123.94L381.13,125.53L382.05,127.39L380.79,130.03L379.44,130.14L377.46,129.58L378.11,127.12L377.28,126.74L373.80,129.35L372.01,129.24L374.13,127.83L371.24,127.10L368.02,127.28L362.20,127.19L361.74,126.30L363.61,125.24L362.30,124.43L364.83,122.62L367.93,117.85L369.78,116.14L372.39,115.10L373.78,115.24L373.20,116.05L371.60,117.94M141.87,107.88L144.75,107.64L143.85,111.05L146.46,113.46L145.26,113.45L143.46,112.08L142.35,110.70L140.83,109.77L140.28,108.45L140.46,107.49L141.87,107.88M970.94,117.76L973.96,123.07L969.53,122.08L967.68,126.42L970.61,129.49L970.52,131.59L968.24,129.78L966.27,132.10L965.72,129.58L966.06,126.66L965.71,123.42L966.40,121.16L966.54,117.14L964.78,114.19L965.04,110.09L967.82,108.72L966.63,107.32L967.96,106.90L968.75,108.89L969.78,111.78L969.71,114.73L970.94,117.76M519.64,113.22L514.31,114.99L510.07,114.54L512.50,111.41L510.93,108.36L515.01,106.00L517.28,104.60L519.80,104.48L523.02,106.33L521.41,108.40L521.90,110.54L519.64,113.22M578.06,103.17L576.27,105.60L573.13,103.91L572.71,102.66L577.11,101.67L578.06,103.17M80.98,98.65L77.99,99.79L76.45,99.02L75.99,97.62L78.71,96.55L80.31,96.09L82.31,96.30L83.57,97.23L80.98,98.65M530.99,94.10L527.78,97.34L530.84,96.93L534.12,96.95L533.34,99.39L530.64,102.08L533.74,102.27L536.66,106.13L538.71,106.61L540.56,110.03L541.41,111.21L545.05,111.78L544.68,113.70L543.15,114.58L544.35,116.13L541.65,117.70L537.64,117.67L532.53,118.50L531.13,117.91L529.15,119.31L526.38,118.97L524.27,120.12L522.67,119.52L527.07,116.37L529.76,115.72L525.05,115.22L524.19,114.03L527.34,113.10L525.70,111.48L526.26,109.51L530.73,109.79L531.16,108.05L529.11,106.16L525.47,105.63L524.76,104.82L525.85,103.48L524.85,102.65L523.24,104.06L523.06,101.18L521.55,99.65L522.64,96.54L524.97,94.11L527.37,94.35L530.99,94.10M43.27,90.27L41.42,90.74L39.45,90.18L37.64,89.36L40.60,88.85L42.97,89.12L43.27,90.27M302.20,83.53L301.03,85.10L299.70,84.85L298.91,83.95L299.05,83.74L300.21,82.85L301.44,82.91L302.20,83.53M294.30,81.87L290.79,83.52L288.68,83.45L288.02,82.64L290.25,81.26L294.37,81.29L294.30,81.87M24.81,78.65L26.65,79.22L28.52,78.92L30.95,79.71L33.93,80.11L33.69,80.43L31.41,81.07L29.13,80.42L27.98,79.87L25.34,80.05L24.62,79.78L24.81,78.65M284.52,73.03L285.07,74.35L286.61,73.88L288.35,74.67L291.64,75.70L295.07,76.64L295.34,78.06L297.54,77.83L299.69,78.82L297.02,79.77L292.36,79.05L290.67,77.70L287.70,79.29L283.43,80.84L282.40,79.09L278.33,79.38L280.94,77.89L281.32,75.53L282.35,72.78L284.52,73.03M496.47,70.63L495.78,72.57L499.17,74.62L495.27,76.91L486.62,78.97L484.03,79.51L480.09,79.07L471.72,78.12L474.66,76.79L468.13,75.33L473.44,74.75L473.31,73.86L467.02,73.17L469.05,71.21L473.60,70.77L478.27,72.80L482.83,71.17L486.60,72.02L491.49,70.42L496.47,70.63M312.40,68.55L309.03,68.70L308.29,67.24L309.56,65.56L312.32,65.14L314.66,65.97L314.69,67.25L314.35,67.67L312.40,68.55M0.00,63.11L7.35,65.40L15.22,68.38L14.96,70.25L16.98,70.99L16.29,68.82L24.43,69.26L30.31,72.07L27.32,73.38L22.41,73.69L22.33,76.62L21.14,77.24L18.33,77.15L16.04,76.11L12.05,75.23L11.38,73.93L8.33,73.44L4.92,73.83L3.29,72.78L3.94,71.66L0.35,72.38L1.71,73.79L0.00,75.06M0.00,75.06L0.00,63.11M253.06,62.68L251.19,63.73L247.15,62.82L244.71,63.15L240.60,61.80L243.25,60.87L245.35,59.57L248.53,60.42L250.32,60.96L251.23,61.53L253.06,62.68M0.00,55.45M1080.00,57.50L1076.71,57.65L1076.18,56.71M0.00,55.45M0.00,55.45L0.39,55.33L2.93,55.33L7.27,56.19L7.01,56.60L3.92,57.32L0.00,57.50L0.00,55.45M268.36,61.51L268.35,64.58L272.36,62.22L275.94,64.15L275.05,66.38L277.95,68.40L281.08,66.24L283.27,63.65L283.44,60.36L287.69,60.58L292.13,61.03L296.16,62.51L296.34,64.00L294.11,65.60L296.23,67.21L295.84,68.67L289.96,70.77L285.79,71.23L282.69,70.32L281.80,71.83L278.90,74.36L278.03,75.67L274.55,77.70L270.26,77.90L267.89,79.17L267.69,81.12L264.20,81.49L260.53,83.93L257.28,87.30L256.11,89.67L255.95,93.15L260.36,93.66L261.71,96.46L263.11,98.74L267.30,98.14L272.89,99.44L275.88,100.59L278.03,102.00L281.79,102.83L284.96,104.09L289.92,104.26L293.18,104.56L292.69,107.15L293.62,110.17L295.79,113.52L300.26,116.37L302.58,115.40L304.20,112.32L302.63,107.57L300.51,105.99L305.32,104.59L308.71,102.49L310.37,100.40L310.14,98.39L308.09,95.84L304.44,93.58L307.99,90.44L306.68,87.72L305.68,83.04L307.77,82.35L312.91,83.17L316.00,83.45L318.48,82.67L321.27,83.68L324.96,85.42L325.88,86.59L331.23,86.82L331.14,89.33L332.14,93.13L334.88,93.59L337.05,95.36L341.39,93.70L344.26,90.39L346.25,88.99L348.58,91.67L352.49,95.50L355.81,99.10L354.60,100.98L358.60,102.67L361.30,104.39L366.07,105.16L368.00,106.12L369.19,108.66L371.52,109.06L372.73,110.19L372.95,113.56L370.77,114.69L368.62,115.74L363.67,116.80L359.90,119.27L354.83,119.76L348.41,119.13L343.91,119.10L340.81,119.31L338.29,121.47L334.47,122.80L330.14,126.77L326.68,129.53L329.23,129.04L334.05,125.10L340.34,122.60L344.84,122.30L347.48,123.77L344.65,125.79L345.60,129.02L346.59,131.29L350.49,132.78L355.44,132.35L358.44,128.98L358.65,131.15L360.59,132.24L356.88,134.21L350.24,135.99L347.26,137.20L343.91,139.36L341.63,139.14L341.51,136.60L346.73,134.12L341.92,134.22L338.58,134.59L339.10,135.57L335.90,137.02L332.82,138.06L329.65,138.95L327.93,140.91L327.56,141.41L327.52,143.00L328.52,144.58L329.76,144.66L329.45,143.56L330.34,144.23L330.11,145.09L328.07,145.57L326.64,145.51L324.42,146.04L323.12,146.19L321.37,146.34L318.87,147.20L323.28,146.64L324.17,147.21L319.96,148.11L318.05,148.11L318.14,147.75L317.23,148.58L318.12,148.72L317.47,150.87L315.28,153.18L315.06,152.41L314.40,152.25L313.42,151.51L314.03,153.12L314.75,153.66L314.83,154.79L313.87,155.95L312.18,158.35L311.91,158.23L312.84,156.19L311.30,155.04L310.95,152.55L310.37,153.85L311.01,155.75L309.12,155.30L311.10,156.25L311.23,159.10L312.08,159.31L312.39,160.35L312.81,163.35L310.91,165.58L307.80,166.46L305.84,168.22L304.34,168.41L302.81,169.52L302.39,170.53L299.10,172.47L297.40,173.90L295.99,175.68L295.52,177.81L296.06,179.89L297.06,182.46L298.40,184.58L298.41,185.88L299.83,189.36L299.74,191.38L299.61,192.55L298.86,194.38L297.96,194.76L296.48,194.40L296.01,193.08L294.86,192.39L293.28,189.81L291.88,187.52L291.43,186.34L292.05,184.35L291.21,182.70L288.87,180.19L287.70,179.73L284.67,181.09L284.14,180.94L282.68,179.54L280.80,178.80L277.41,179.18L274.74,178.84L272.45,179.05L271.18,179.47L271.76,180.32L271.71,181.54L272.35,182.13L271.77,182.52L270.66,182.08L269.54,182.65L267.36,182.56L265.12,180.97L262.51,181.34L260.33,180.65L258.46,180.86L255.93,181.56L253.20,183.78L250.22,185.08L248.58,186.51L247.89,187.86L247.86,189.93L248.01,191.37L248.58,192.39L248.59,192.40L248.58,192.40L247.42,195.02L246.89,197.18L246.67,201.20L246.38,202.67L246.90,204.30L247.83,205.77L248.43,208.09L250.42,210.33L251.12,212.04L252.30,213.51L255.49,214.31L256.72,215.57L259.35,214.73L261.64,214.42L263.89,213.88L265.78,213.37L267.68,212.15L268.40,210.40L268.64,207.88L269.16,207.00L271.19,206.21L274.37,205.52L277.02,205.62L278.85,205.37L279.56,206.00L279.46,207.45L277.85,209.23L277.14,211.06L277.69,211.58L277.24,212.88L276.49,215.22L275.73,214.45L275.10,214.50L275.11,214.94L275.68,214.96L275.63,215.77L275.14,217.07L275.40,217.53L275.09,218.61L275.28,218.89L274.94,220.41L274.34,221.20L273.80,221.30L273.21,222.34L274.18,222.88L274.44,222.44L275.33,222.82L275.64,222.93L276.30,222.41L277.15,222.36L277.43,222.61L277.90,222.46L279.29,222.73L280.67,222.65L281.65,222.32L281.99,221.98L282.95,222.14L283.66,222.34L284.45,222.27L285.05,222.01L286.42,222.43L286.89,222.50L287.81,223.06L288.68,223.73L289.77,224.19L290.56,225.01L290.30,225.30L290.14,225.97L290.46,227.07L289.77,228.09L289.44,229.30L289.35,230.62L289.51,231.39L289.58,232.74L289.12,233.04L288.84,234.32L289.04,235.11L288.44,235.88L288.57,236.69L289.03,237.18L289.79,238.81L290.95,240.02L292.36,241.30L293.44,242.38L293.37,243.01L294.57,243.15L294.85,242.90L295.69,243.64L297.15,243.43L298.44,242.67L300.25,242.06L301.28,241.17L302.93,241.34L302.82,241.63L304.50,241.74L305.84,242.26L306.81,243.16L307.94,243.99L309.49,244.08L311.75,241.99L312.98,241.67L313.01,240.68L313.56,238.14L315.28,236.75L317.17,236.69L317.40,236.07L319.76,236.32L322.11,234.80L323.29,234.13L324.74,232.69L325.80,232.87L326.58,233.66L326.00,234.67L325.91,235.38L324.15,235.73L325.14,237.09L325.10,238.66L323.78,240.40L324.91,242.78L326.21,242.59L326.88,240.42L325.95,239.36L325.80,237.09L329.53,235.87L329.12,234.46L330.17,233.52L331.25,235.62L333.36,235.67L335.30,237.34L335.42,238.33L338.11,238.36L341.32,238.05L343.03,239.40L345.33,239.77L347.01,238.83L347.05,238.07L350.77,237.90L354.36,237.85L351.81,238.74L352.84,240.16L355.24,240.38L357.51,241.86L357.99,244.26L359.55,244.19L360.72,244.90L362.70,246.00L364.55,247.96L364.63,249.50L365.77,249.57L367.38,251.04L368.55,252.08L372.15,252.68L372.47,252.14L374.90,251.92L378.12,252.73L379.15,253.06L381.35,253.77L384.53,256.30L385.02,257.53L386.05,257.39L386.80,259.05L388.47,264.30L390.08,264.79L390.15,266.86L387.91,269.33L388.84,270.24L394.14,270.70L394.25,273.72L396.53,271.74L400.30,272.82L405.28,274.65L406.74,276.41L406.26,278.07L409.75,277.15L415.58,278.74L420.06,278.62L424.50,281.10L428.33,284.46L430.64,285.33L433.20,285.45L434.29,286.39L435.31,290.21L435.81,292.03L434.62,296.99L433.08,298.95L428.86,303.12L426.95,306.51L424.73,309.12L423.98,309.17L423.14,311.38L423.35,317.00L422.52,321.62L422.20,323.60L421.25,324.79L420.72,328.80L417.67,332.71L417.16,335.81L414.73,337.11L414.03,338.91L410.77,338.90L406.05,340.05L403.95,341.39L400.59,342.27L397.06,344.66L394.52,347.63L394.07,349.87L394.57,351.53L394.02,354.56L393.34,356.02L391.23,357.67L387.91,362.96L385.27,365.33L383.23,366.74L381.86,369.59L379.88,371.30L378.58,373.19L375.20,374.86L372.98,374.26L371.35,374.58L368.59,373.29L366.54,373.39L364.72,371.73L364.51,373.29L368.33,375.86L367.92,377.93L369.78,379.24L369.63,380.71L366.75,384.55L362.30,386.16L356.28,386.78L352.99,386.49L353.63,388.27L353.01,390.52L353.56,392.03L351.76,393.09L348.69,393.50L345.81,392.41L344.64,393.19L345.06,396.17L347.09,397.08L348.74,396.13L349.62,397.69L346.87,398.62L344.46,400.48L344.02,403.51L343.30,405.11L340.47,405.12L338.12,406.65L337.25,408.90L340.21,411.10L343.08,411.71L342.04,414.40L338.50,416.09L336.55,419.61L333.81,420.80L332.59,422.20L333.55,425.31L335.55,427.05L334.28,426.90L331.62,426.88L330.17,427.61L327.47,428.70L326.98,431.50L325.71,431.57L322.33,430.60L318.89,428.50L315.16,426.79L314.22,424.89L315.07,423.13L313.56,421.14L313.17,416.02L314.46,413.14L317.62,410.82L313.06,409.94L315.92,407.29L316.94,402.31L320.28,403.36L321.84,397.15L319.83,396.35L318.89,400.10L317.00,399.68L317.94,395.39L318.97,389.83L320.34,387.77L319.49,384.85L319.24,381.47L320.50,381.37L322.34,376.53L324.41,371.73L325.69,367.26L325.00,362.76L325.89,360.29L325.53,356.58L327.29,352.92L327.83,347.12L328.79,340.89L329.73,334.18L329.51,329.27L328.88,325.05L325.87,323.32L325.61,322.09L319.66,319.08L314.28,315.80L311.97,313.95L310.73,311.47L311.23,310.60L308.68,306.67L305.72,301.13L302.89,295.16L301.66,293.79L300.72,291.58L298.39,289.62L296.25,288.41L297.22,287.07L295.77,284.21L296.70,282.11L299.09,280.21L300.69,277.97L300.04,276.66L298.89,278.06L297.10,276.74L297.70,275.89L297.20,273.17L298.24,272.72L298.81,270.85L299.94,268.92L299.72,267.69L301.38,267.05L303.43,265.85L303.03,264.93L304.14,264.70L304.01,263.20L304.71,262.11L306.20,261.91L307.47,260.03L308.61,258.45L307.51,257.74L308.07,255.99L307.40,253.25L308.04,252.47L307.57,249.93L306.36,248.33L305.35,247.46L304.71,245.84L305.45,245.04L304.69,244.84L304.13,243.85L302.64,243.01L301.32,243.20L300.72,244.24L299.51,245.00L298.85,245.10L298.56,245.73L299.98,247.36L299.17,247.74L298.74,248.18L297.34,248.34L296.82,246.54L296.43,247.06L295.44,246.88L294.83,245.67L293.60,245.47L292.82,245.12L291.54,245.13L291.45,245.78L291.11,245.33L289.48,244.66L288.87,244.03L289.22,243.51L289.10,242.85L288.27,242.13L287.09,241.54L286.06,241.15L285.86,240.27L285.07,239.74L285.26,240.61L284.67,241.33L283.98,240.50L283.02,240.20L282.61,239.59L282.63,238.68L283.02,237.73L282.17,237.31L282.87,236.73L281.83,235.79L280.42,234.58L279.77,233.57L278.50,232.63L276.99,231.27L277.33,230.80L277.82,231.26L278.05,231.05L277.53,230.11L276.62,229.84L276.29,230.55L274.55,230.51L273.47,230.22L272.23,229.63L270.56,229.44L269.71,228.79L268.18,228.27L266.30,228.21L264.93,227.62L263.32,226.38L259.93,223.15L258.37,222.18L255.93,221.39L254.25,221.61L251.84,222.75L250.32,223.04L248.21,222.25L245.96,221.68L243.15,220.30L240.91,219.88L237.52,218.49L235.00,217.05L234.24,216.25L232.57,216.07L229.50,215.12L228.25,213.75L225.02,212.05L223.52,210.16L222.81,208.70L223.81,208.41L223.50,207.55L224.19,206.77L224.20,205.74L223.20,204.38L222.93,203.19L221.91,201.68L219.27,198.70L216.25,196.35L214.79,194.48L212.22,193.26L211.67,192.52L212.12,190.67L210.59,189.97L208.82,188.51L208.07,186.42L206.47,186.18L204.72,184.60L203.31,183.13L203.18,182.20L201.57,179.94L200.50,177.64L200.56,176.49L198.39,175.29L197.38,175.43L195.67,174.60L195.19,175.82L195.69,177.26L195.98,179.51L197.00,180.75L199.23,182.81L199.73,183.52L200.18,183.73L200.58,184.76L201.11,184.72L201.71,186.66L202.63,187.42L203.27,188.49L205.15,190.01L206.14,192.80L207.04,194.12L207.87,195.52L208.03,197.10L209.48,197.20L210.69,198.57L211.77,199.91L211.70,200.44L210.44,201.55L209.91,201.53L209.11,199.71L207.15,198.00L204.99,196.54L203.45,195.78L203.55,193.59L203.10,191.96L201.67,191.04L199.61,189.69L199.21,190.08L198.45,189.30L196.61,188.57L194.83,186.83L195.05,186.61L196.29,186.78L197.40,185.65L197.51,184.30L195.20,182.16L193.44,181.33L192.34,179.46L191.23,177.49L189.83,175.09L188.61,172.40L188.12,170.86L186.17,169.14L184.77,168.77L184.44,167.92L182.76,167.76L181.68,166.96L178.89,166.66L178.14,166.18L177.77,164.53L174.85,161.51L172.36,157.34L172.47,156.65L171.14,155.66L168.82,153.15L168.41,150.70L166.81,149.06L167.47,146.58L167.36,144.00L166.40,141.70L167.57,138.87L168.30,133.43L167.76,129.41L166.81,126.84L165.94,125.45L166.30,124.86L170.64,125.88L172.24,128.71L172.97,127.92L172.50,125.46L171.48,123.00L171.07,122.99L165.27,120.04L163.12,118.75L157.69,117.51L156.02,114.85L156.45,113.01L152.61,111.73L152.09,109.32L148.46,107.14L148.39,105.59L146.74,104.46L144.10,103.51L143.25,100.89L139.39,98.46L137.77,95.63L134.88,95.44L130.12,95.36L126.60,94.50L120.40,91.39L117.53,90.82L112.28,89.75L108.12,90.00L102.22,88.62L98.66,87.34L95.32,87.98L95.95,90.07L94.28,90.26L90.82,90.88L88.17,91.89L84.86,92.53L84.42,90.77L85.77,87.82L88.96,86.90L88.14,86.15L84.32,87.82L82.26,89.82L77.94,91.95L80.14,93.41L77.31,95.56L74.08,96.81L71.08,97.73L70.33,99.06L65.64,100.61L64.70,102.02L61.19,103.30L59.13,103.07L56.33,103.91L53.29,104.93L50.79,105.93L45.64,106.79L45.18,106.28L48.46,104.88L51.39,103.96L54.58,102.31L58.31,101.98L59.79,100.74L63.95,98.95L64.62,98.35L66.83,97.29L67.35,95.02L68.87,93.24L65.42,94.15L64.44,93.64L62.82,94.73L60.87,93.20L60.06,94.28L58.94,92.79L55.93,93.99L54.10,93.99L53.84,92.20L54.38,91.10L52.45,90.03L48.55,90.60L46.01,89.20L43.96,88.48L43.95,86.78L41.63,85.50L42.80,83.77L45.24,82.10L46.31,80.56L48.74,80.34L50.80,80.82L53.22,79.37L55.39,79.63L57.68,78.70L57.12,77.33L55.45,76.79L57.66,75.63L55.83,75.67L52.64,76.32L51.72,76.99L49.36,76.32L45.12,76.66L40.73,75.94L39.46,74.73L35.67,72.99L39.88,71.74L46.58,70.27L49.04,70.27L48.63,71.77L54.96,71.65L52.53,69.80L48.84,68.65L46.71,67.15L43.83,65.87L39.71,64.92L41.39,63.35L46.71,63.26L50.49,61.88L51.20,60.43L54.27,59.00L57.20,58.66L62.88,57.32L65.64,57.53L70.25,55.93L74.80,56.56L76.97,57.91L78.30,57.33L83.37,57.51L83.19,58.20L87.78,58.71L90.84,58.41L97.16,59.36L102.93,59.64L105.24,60.03L109.23,59.54L113.78,60.44L117.04,60.86L122.64,61.59L127.37,63.03L130.49,63.31L133.12,62.05L136.75,61.12L141.21,61.48L145.70,60.17L150.62,59.42L152.68,60.66L154.92,59.96L155.59,58.55L157.66,58.87L162.74,61.56L166.72,59.52L167.13,61.80L170.81,61.31L171.95,60.43L175.59,60.61L180.17,61.86L187.19,62.97L191.32,63.47L194.26,63.28L198.31,64.80L194.09,66.29L199.51,66.94L207.61,66.58L210.16,66.06L213.36,67.86L216.62,66.34L213.56,65.06L215.49,64.04L219.14,63.90L221.55,63.60L223.97,64.32L226.99,65.95L230.33,65.71L235.64,67.06L240.29,66.58L244.67,66.65L244.32,64.79L246.99,64.27L251.64,65.28L251.62,68.12L253.53,65.73L255.94,65.81L257.30,62.79L254.08,60.95L250.58,59.73L250.82,56.42L254.37,54.24L258.33,54.72L261.36,56.05L265.45,59.43L262.78,60.90L268.36,61.51M197.50,50.64L196.00,52.04L202.67,51.14L206.84,52.65L210.23,51.11L212.98,52.10L215.43,55.05L216.94,53.81L214.81,50.73L217.45,50.29L220.43,50.77L223.79,51.98L225.68,54.90L226.61,57.02L231.64,58.51L237.06,59.92L236.73,61.24L231.80,61.49L233.73,62.64L232.71,63.74L227.28,63.27L222.12,62.46L218.64,62.64L213.00,63.66L204.10,64.18L200.06,64.39L198.43,62.98L194.34,62.16L191.68,62.49L187.98,60.12L189.97,59.80L194.61,59.29L198.84,59.42L202.75,58.90L196.95,58.20L190.54,58.44L186.28,58.38L184.70,57.27L191.66,56.07L187.04,56.12L181.80,55.32L184.31,53.07L186.40,51.88L194.43,50.06L197.50,50.64M226.50,49.74L223.86,51.72L219.18,49.62L220.20,49.20L224.22,49.08L226.50,49.74M310.98,50.69L311.25,51.52L308.05,51.43L304.82,51.37L301.54,51.77L300.68,51.59L297.37,50.00L297.50,48.92L298.94,48.72L305.81,49.04L310.98,50.69M280.32,50.53L282.68,52.40L285.45,49.98L293.05,48.75L298.20,51.85L297.75,53.82L303.69,52.94L306.53,51.75L313.18,53.27L317.32,54.70L317.71,56.01L323.27,55.33L326.40,57.24L333.64,58.43L336.25,59.64L339.09,62.44L333.58,63.84L340.65,65.80L345.41,66.46L349.73,69.22L354.45,69.41L353.51,71.52L348.25,75.01L344.56,73.72L339.84,70.84L335.96,71.21L335.58,72.93L338.73,74.68L342.81,76.06L344.04,76.85L345.99,79.82L344.96,81.98L341.18,81.16L333.65,78.76L337.89,81.35L341.01,83.16L341.50,84.21L333.37,83.01L326.93,81.27L323.29,79.81L324.34,78.96L319.87,77.42L315.49,75.97L315.55,76.83L306.87,77.31L304.34,76.28L306.31,74.07L311.95,74.02L318.12,73.63L317.12,72.56L318.16,71.07L322.05,68.15L321.22,66.82L320.06,65.79L315.47,64.34L309.39,63.32L311.31,62.55L308.14,60.69L305.49,60.52L303.13,59.50L301.52,60.39L296.08,60.77L285.17,60.10L278.82,59.22L273.96,58.77L271.46,57.72L274.59,56.34L270.34,56.33L269.39,53.29L271.69,50.61L274.78,49.39L282.52,48.59L280.32,50.53M238.93,48.47L242.51,49.10L247.86,48.72L248.64,49.59L245.84,51.03L250.38,52.32L249.84,55.02L244.92,56.18L242.03,55.93L239.96,54.79L232.50,52.47L232.56,51.51L238.68,51.88L235.38,49.92L238.93,48.47M970.81,50.36L966.26,50.38L960.12,50.05L959.59,49.89L962.43,48.70L966.19,48.43L970.44,49.58L970.81,50.36M260.41,51.68L257.19,53.93L253.77,53.82L251.90,51.18L251.94,49.69L253.51,48.41L256.49,47.60L262.75,47.70L268.47,48.43L263.99,51.10L260.41,51.68M178.62,55.80L170.73,57.29L169.14,55.98L162.22,54.40L163.22,53.42L165.58,50.93L168.18,48.96L165.24,47.12L175.38,46.65L179.67,47.28L187.33,47.44L190.24,48.31L193.46,49.58L189.69,50.33L182.34,52.44L178.62,54.54L178.62,55.80M992.20,44.75L988.73,45.94L983.93,45.67L978.36,44.48L979.07,43.51L984.67,43.96L992.20,44.75M259.16,45.06L257.53,46.23L253.18,46.00L249.54,45.21L251.13,43.86L255.44,43.06L258.07,44.11L259.16,45.06M975.26,43.31L972.90,45.54L961.85,45.46L956.87,46.16L950.93,44.21L952.54,42.15L956.49,41.59L964.42,41.72L975.26,43.31M244.50,39.84L246.79,41.23L246.89,42.77L245.52,45.00L240.57,45.31L237.35,44.83L237.41,43.08L232.49,43.31L232.30,40.99L235.53,41.08L240.05,40.06L244.27,40.23L244.50,39.84M215.36,41.40L216.54,42.46L219.21,41.96L222.35,42.09L222.88,43.56L221.06,44.99L210.90,45.45L203.33,46.75L198.77,46.82L198.39,45.84L204.62,44.51L191.06,44.87L186.86,44.33L190.96,41.40L193.79,40.56L202.23,41.57L207.56,43.35L212.79,43.58L208.51,40.71L211.26,39.62L214.35,39.96L215.36,41.40M712.60,57.84L710.83,58.10L701.04,57.71L700.24,56.38L694.80,55.58L694.37,53.95L697.44,53.31L697.33,51.67L703.28,49.12L700.53,48.75L707.71,46.12L706.90,44.76L713.61,43.17L723.51,41.24L733.50,40.69L738.63,39.57L744.47,39.18L746.56,40.37L744.54,41.30L733.91,42.79L724.75,44.22L715.43,47.07L710.96,50.00L706.26,52.89L706.87,55.38L712.60,57.84M255.95,38.71L259.28,39.67L265.19,39.66L267.78,40.65L267.09,41.78L270.53,42.46L272.44,43.17L276.48,43.30L280.87,43.55L285.63,42.90L291.74,42.65L296.61,42.86L299.83,43.99L300.50,45.23L298.62,46.03L294.15,46.67L290.32,46.31L281.71,46.77L275.55,46.82L270.70,46.45L262.73,45.49L261.70,43.84L261.33,42.35L258.32,41.04L252.12,40.68L248.64,39.75L249.76,38.52L255.95,38.71M191.40,37.06L190.99,39.37L188.68,40.41L185.88,40.56L180.30,41.84L175.50,42.30L171.43,41.65L176.53,39.41L182.68,37.46L187.28,37.51L191.40,37.06M687.33,146.15L688.85,148.28L690.26,148.42L691.17,149.23L688.71,149.47L688.18,151.80L687.68,152.85L686.57,153.55L686.65,155.04L687.60,157.25L690.44,157.88L692.52,159.38L696.79,159.90L701.48,159.11L701.77,158.40L701.21,156.28L701.64,153.15L699.31,152.13L700.07,150.07L698.09,149.90L698.75,147.37L701.58,148.11L704.21,147.15L702.03,145.35L701.16,143.63L698.75,144.40L698.44,146.60L697.50,144.65L697.34,143.92L698.08,142.67L697.50,141.62L694.03,140.60L692.68,137.91L691.01,137.15L690.92,136.17L693.83,136.46L693.95,134.26L696.50,133.77L699.12,134.22L699.66,131.30L699.12,129.44L696.12,129.59L693.57,128.85L690.11,130.17L687.31,130.80L685.94,132.58L683.03,133.07L680.05,136.17L682.77,139.02L682.48,141.04L685.75,144.57L687.33,146.15M0.00,75.06M1079.98,75.08L1076.12,76.40L1072.23,76.17L1074.93,77.77L1076.73,80.25L1078.11,81.05L1078.46,82.29L1077.69,83.09L1072.09,82.43L1063.70,84.69L1061.04,85.04L1056.44,87.15L1052.09,88.99L1050.99,90.36L1046.70,88.28L1038.88,90.63L1037.52,89.52L1034.63,90.81L1030.62,90.40L1029.65,92.37L1026.05,95.27L1026.16,96.48L1029.57,97.15L1029.17,101.52L1026.39,101.63L1025.10,104.14L1026.36,105.44L1021.11,106.96L1020.07,110.39L1015.59,111.12L1014.69,114.17L1010.37,116.97L1009.26,114.90L1007.97,110.52L1006.30,103.86L1007.75,99.70L1010.27,97.91L1010.44,96.50L1015.09,95.83L1020.45,92.06L1025.62,88.97L1031.01,86.58L1033.42,82.35L1029.78,82.60L1027.98,85.07L1020.36,88.36L1017.91,84.68L1010.17,85.70L1002.65,90.73L1005.13,92.56L998.44,93.35L993.79,93.66L994.01,91.49L989.35,91.03L985.64,92.51L976.46,91.99L966.60,92.88L956.88,98.73L945.38,105.81L950.11,106.19L951.58,108.07L954.49,108.74L956.41,107.23L959.71,107.43L964.04,110.73L964.14,113.28L961.79,116.28L961.54,119.86L960.18,124.66L955.67,129.00L954.65,131.08L950.58,134.57L946.54,138.03L944.61,139.81L940.61,141.56L938.72,141.60L936.83,140.15L932.81,142.34L932.34,143.34L931.20,143.16L929.90,144.18L929.00,145.20L929.11,147.35L927.57,148.01L927.03,148.55L925.90,149.43L923.91,149.92L922.60,150.73L922.50,152.03L922.16,152.36L923.36,152.85L925.05,154.16L927.64,157.70L928.38,159.65L928.41,163.10L927.28,164.75L924.55,165.33L922.16,166.57L919.46,166.83L919.12,165.20L919.68,162.95L918.35,159.82L920.58,159.32L918.53,156.75L917.07,156.18L916.70,156.75L915.83,156.99L915.72,156.43L914.94,156.15L914.13,155.67L914.96,154.35L915.67,154.00L915.40,153.46L916.16,151.84L915.97,151.34L914.21,151.02L912.79,150.22L908.60,151.08L906.40,152.49L903.16,153.31L904.76,151.92L904.13,150.75L906.51,148.73L904.92,147.16L902.31,148.22L898.91,150.31L897.07,152.24L894.13,152.39L892.60,153.79L894.18,155.82L896.64,156.31L896.73,157.65L899.11,158.53L902.47,156.39L905.14,157.56L907.07,157.63L907.57,159.21L903.31,160.05L901.91,161.67L898.99,163.17L897.46,165.27L900.69,166.92L901.86,169.87L903.69,172.62L905.73,174.92L905.68,177.15L903.80,177.97L904.51,179.57L906.28,180.50L905.82,182.95L905.05,185.32L903.38,185.59L901.18,188.84L898.75,192.78L895.97,196.36L891.84,199.12L887.67,201.65L884.29,202.00L882.46,203.33L881.42,202.35L879.72,203.85L875.53,205.35L872.36,205.81L871.33,208.97L869.67,209.15L868.88,206.97L869.59,205.82L865.56,204.85L864.15,205.34L860.14,207.91L857.65,210.74L856.99,212.82L859.28,215.99L862.09,219.91L864.81,221.76L866.63,224.17L868.00,229.72L867.61,235.00L865.10,236.97L861.67,238.91L859.21,241.41L855.48,244.20L854.39,242.28L855.23,240.24L853.00,238.54L850.49,238.10L849.28,236.54L847.75,233.44L845.07,232.06L842.49,232.12L842.94,229.76L840.29,229.78L840.05,233.08L838.43,237.46L837.46,240.11L837.67,242.28L839.62,242.38L840.84,245.11L841.38,247.71L843.06,249.43L844.87,249.78L846.43,251.33L847.12,251.62L848.89,253.42L850.14,255.44L850.31,257.46L850.00,258.82L850.29,259.85L850.51,261.63L851.57,262.45L852.74,265.11L852.69,266.12L850.56,266.32L847.72,264.10L844.17,261.72L843.82,260.19L842.08,258.18L841.67,255.70L840.59,254.06L840.92,251.88L840.26,250.61L839.07,249.45L838.56,247.97L836.97,246.28L835.51,244.85L835.02,246.62L834.45,244.95L834.77,243.08L835.66,240.20L835.37,237.97L836.30,235.68L835.28,233.90L835.53,230.63L834.31,229.08L833.34,225.49L832.80,221.70L831.49,219.21L829.51,220.72L826.11,222.86L824.43,222.59L822.57,221.89L823.61,218.17L822.98,215.36L820.62,211.90L820.99,210.82L819.23,210.43L817.10,207.99L816.25,206.42L816.08,204.89L815.51,203.45L814.25,201.70L811.49,201.59L811.76,202.82L810.82,204.49L809.54,203.88L809.10,204.43L808.26,204.10L807.09,203.83L806.67,204.93L804.63,204.89L800.93,205.51L801.10,207.77L799.50,209.54L795.18,211.56L791.82,215.09L789.56,216.99L786.58,218.95L786.57,220.33L785.08,221.07L782.38,222.15L780.98,222.30L780.07,224.59L780.70,228.49L780.86,230.98L779.58,233.83L779.57,238.93L778.02,239.08L776.66,241.36L777.56,242.35L774.83,243.20L773.83,245.24L772.62,246.10L769.78,243.30L768.40,239.10L767.24,236.07L766.19,234.66L764.59,231.77L763.85,228.02L763.33,226.15L760.60,222.03L759.36,216.22L758.46,212.38L758.47,208.74L757.89,205.93L753.52,207.73L751.41,207.37L747.50,203.73L748.93,202.65L748.05,201.47L744.53,198.93L742.33,198.16L741.44,196.01L739.12,193.73L733.59,194.29L728.72,194.35L724.49,194.77L718.84,193.86L715.58,193.17L712.19,192.78L710.92,189.10L709.48,188.57L707.17,189.11L704.15,190.56L700.48,189.56L697.45,187.26L694.57,186.40L692.56,183.56L690.34,179.55L688.73,180.04L686.82,179.05L685.71,180.22L683.93,180.07L684.55,181.40L684.28,182.08L685.25,184.34L686.42,186.93L687.90,187.62L688.41,188.67L690.46,189.93L690.63,191.17L690.34,192.17L690.72,193.18L691.58,194.02L691.98,195.00L692.43,195.74L692.23,193.55L693.04,191.98L693.86,191.65L694.77,192.60L694.82,194.35L694.17,196.12L694.74,197.27L695.27,197.12L695.39,197.94L697.73,197.47L700.21,197.54L702.03,197.64L704.08,195.61L706.32,193.68L708.22,191.83L709.08,190.81L709.46,191.07L709.18,192.31L708.78,192.86L709.19,195.22L710.54,197.28L712.21,198.36L714.42,198.76L716.19,199.30L717.54,201.02L718.35,202.02L719.43,202.40L719.42,203.07L718.33,204.86L717.85,205.70L716.59,206.66L715.46,208.71L714.10,208.55L713.48,209.27L713.00,210.79L713.37,212.80L713.09,213.16L711.71,213.15L709.83,214.28L709.53,215.74L708.85,216.37L706.99,216.35L705.81,217.10L705.82,218.32L704.37,219.15L702.72,218.87L700.71,219.88L699.33,220.04L697.16,220.85L696.57,222.19L696.51,223.21L693.52,224.47L688.72,225.87L686.03,227.99L684.72,228.15L683.82,227.98L682.06,229.22L680.15,229.80L677.63,229.96L676.88,230.13L676.22,230.92L675.43,231.14L674.97,231.90L673.48,231.83L672.52,232.24L670.45,232.09L669.67,230.34L669.76,228.70L669.26,227.81L668.68,225.59L667.81,224.36L668.42,224.21L668.11,222.84L668.47,222.26L668.34,220.96L667.95,219.67L667.05,218.77L666.81,217.58L665.27,216.50L663.67,213.99L662.81,211.54L660.74,209.48L659.40,208.98L657.41,206.13L657.07,204.04L657.20,202.26L655.48,198.94L654.08,197.76L652.46,197.14L651.46,195.42L651.62,194.75L650.79,193.19L649.92,192.52L648.75,190.29L646.92,187.87L645.39,185.81L643.89,185.83L644.37,184.18L644.50,183.13L644.86,181.93L644.77,181.49L643.92,182.70L643.28,184.97L642.47,186.53L641.76,187.05L640.76,186.08L639.41,184.75L637.27,180.45L636.96,180.72L638.20,183.89L640.05,186.90L642.31,191.57L643.42,193.20L644.39,194.90L647.08,198.22L646.48,198.74L646.58,200.69L650.07,203.38L650.60,204.00L651.57,206.94L650.91,207.49L651.34,210.57L652.45,214.16L653.59,214.90L655.23,216.01L656.97,219.48L657.80,222.23L659.44,223.69L663.54,226.53L665.20,228.23L666.83,229.97L667.77,231.00L669.24,231.90L669.95,232.83L669.86,234.07L668.15,234.79L669.43,235.61L670.42,236.17L671.00,237.40L672.35,238.66L673.84,238.67L676.67,237.91L679.93,237.55L682.58,236.62L684.07,236.42L685.14,235.87L686.84,235.77L687.80,235.71L689.19,235.26L690.77,234.96L692.20,233.94L693.33,233.93L693.40,234.75L693.13,236.50L693.14,238.07L692.50,239.16L691.66,242.41L690.21,245.75L688.36,249.59L685.79,253.98L683.23,257.34L679.69,261.43L676.69,263.86L672.21,266.84L669.41,269.12L666.13,272.76L665.44,274.34L664.76,275.05L662.65,276.25L661.92,277.50L660.79,277.72L660.36,279.83L659.40,281.04L658.82,283.04L657.61,284.03L656.23,287.72L656.40,289.43L658.32,290.52L658.41,291.30L657.59,293.11L657.76,294.03L657.56,295.46L658.61,297.34L659.85,300.30L660.95,300.95L661.43,302.30L661.31,305.28L661.68,307.92L661.80,312.61L662.33,314.08L661.43,316.22L660.26,318.30L658.35,320.16L655.61,321.30L652.23,322.76L648.85,325.98L647.69,326.53L645.60,328.66L644.36,329.35L644.11,331.49L645.53,333.76L646.12,335.52L646.16,336.42L646.69,336.27L646.60,339.21L646.12,340.60L646.82,341.12L646.38,342.37L645.12,343.44L642.65,344.45L639.04,346.07L637.72,347.18L637.98,348.44L638.75,348.65L638.49,350.23L637.74,352.41L637.39,354.90L636.61,356.26L634.56,357.77L633.98,358.21L632.70,359.73L631.87,361.27L630.16,363.42L626.77,366.51L624.66,368.32L622.40,369.68L619.26,370.85L617.73,371.00L617.34,371.84L615.52,371.39L614.03,371.96L610.78,371.38L608.96,371.75L607.72,371.59L604.63,372.78L602.06,373.25L600.22,374.39L598.84,374.46L597.58,373.39L596.57,373.33L595.27,371.99L595.13,372.41L594.73,371.60L594.75,369.85L593.78,367.83L594.74,367.29L594.66,364.99L592.70,362.18L591.20,359.63L591.19,359.63L589.04,355.73L586.80,353.47L585.64,351.27L584.97,348.35L584.23,346.18L583.23,341.56L583.15,337.97L582.77,336.33L581.61,335.10L580.05,332.62L578.48,329.02L577.83,327.14L575.39,324.21L575.20,321.91L574.92,320.02L575.33,317.38L576.37,314.64L576.53,313.35L577.50,310.65L578.22,309.41L579.93,307.45L580.91,306.12L581.22,303.89L581.06,302.19L580.16,301.12L579.36,299.30L578.63,297.50L578.79,296.88L579.71,295.69L578.80,292.79L578.18,290.78L576.68,288.88L576.96,288.30L576.54,287.37L575.74,285.11L573.28,281.94L570.20,278.91L568.22,276.43L566.39,273.33L566.49,272.34L567.15,271.38L567.87,269.20L568.47,266.97L567.91,266.51L568.95,263.15L569.38,260.78L568.22,258.80L566.84,258.29L566.24,256.94L565.47,256.51L565.50,255.68L562.38,256.77L561.25,256.60L560.09,257.28L557.70,257.21L556.09,255.33L555.10,253.17L552.98,251.19L550.72,251.23L548.07,251.22L545.60,251.57L543.18,252.21L538.47,253.97L536.81,255.00L534.11,255.87L531.43,255.01L530.07,255.05L527.97,254.46L526.05,254.50L522.50,255.02L520.41,255.88L517.44,256.98L516.86,256.91L516.07,256.93L512.98,255.50L510.26,253.22L507.70,251.58L505.68,249.64L504.87,249.42L502.71,248.21L501.16,246.61L500.63,245.51L500.26,243.29L498.94,241.52L497.78,240.34L497.01,239.95L496.26,239.35L495.92,238.03L495.48,237.37L494.61,236.88L493.00,235.62L491.74,235.42L491.06,234.58L491.07,234.12L490.16,233.49L489.97,232.84L489.47,230.54L489.86,229.21L488.62,226.88L487.13,225.81L488.45,225.24L489.89,223.14L490.61,221.59L490.35,219.98L491.19,218.50L491.56,215.67L491.23,212.71L490.86,211.22L491.17,209.72L490.39,208.29L488.81,207.00L488.94,205.74L489.08,204.34L490.23,203.53L491.21,201.96L491.02,200.95L492.05,198.83L493.73,196.92L494.73,196.44L495.53,194.69L495.60,193.09L496.68,191.24L498.67,190.14L500.59,187.08L502.14,185.89L504.94,185.55L507.30,183.51L508.80,182.70L511.31,180.20L510.55,176.47L511.70,173.89L512.10,172.30L514.03,170.28L517.03,168.91L519.26,167.67L521.27,164.56L522.21,162.72L524.42,162.73L526.22,164.01L529.08,163.80L532.19,164.46L533.49,164.49L536.38,162.85L539.62,162.34L541.51,161.10L544.40,160.18L549.49,159.65L554.45,159.41L555.96,159.85L558.79,158.67L561.99,158.64L563.21,159.34L565.27,159.16L568.53,157.95L570.63,158.31L570.54,159.83L573.09,158.73L573.30,159.30L571.80,160.77L571.78,162.16L572.82,162.91L572.43,165.50L570.45,167.01L571.02,168.64L572.57,168.69L573.32,170.12L574.47,170.59L577.99,171.62L579.25,171.36L581.76,171.86L585.73,173.20L587.14,175.87L589.84,176.45L594.06,177.71L597.26,179.20L598.73,178.42L600.16,177.04L599.46,174.75L600.40,173.28L602.56,171.88L604.63,171.47L608.68,172.09L609.71,173.43L610.83,173.44L611.78,173.95L614.76,174.30L615.50,175.29L619.48,175.24L622.38,176.04L625.35,176.92L626.74,177.39L629.05,176.44L630.28,175.58L632.93,175.33L635.07,175.71L635.88,177.20L636.58,176.22L638.98,176.93L641.32,177.10L642.80,176.34L643.66,175.36L643.46,175.18L644.26,173.78L644.86,171.52L645.30,170.76L645.38,170.73L646.45,168.28L647.94,166.17L648.00,166.06L647.71,163.77L648.45,162.53L647.35,161.17L648.48,160.05L646.66,160.31L644.14,159.61L642.08,161.34L637.53,161.68L635.10,160.07L631.86,159.97L631.17,161.21L629.10,161.57L626.20,159.97L622.93,160.02L621.15,157.04L618.95,155.37L620.41,153.04L618.51,151.61L621.84,148.74L626.46,148.62L627.72,146.34L633.44,146.74L637.04,144.79L640.54,143.94L645.50,143.88L650.74,145.99L655.05,147.15L658.54,146.69L661.12,146.96L664.66,145.39L665.11,144.11L664.36,142.07L662.63,140.96L660.97,140.61L659.86,139.69L656.04,137.16L652.62,136.03L650.03,134.27L652.21,133.78L654.70,131.28L653.02,130.09L657.45,128.86L657.36,128.21L654.67,128.69L652.27,128.94L650.27,129.91L647.47,130.06L644.89,131.18L645.06,133.05L646.53,133.77L649.59,133.59L649.00,134.66L645.72,135.18L641.65,136.92L639.98,136.30L640.64,134.90L637.36,134.02L637.90,133.44L640.76,132.44L639.90,131.76L635.23,131.00L635.02,129.88L632.25,130.25L631.14,131.90L628.81,134.12L628.88,134.89L627.42,135.54L626.51,135.26L625.67,138.88L624.12,140.12L623.03,142.26L623.99,143.98L624.34,145.13L626.97,146.10L626.42,146.83L622.85,147.00L621.58,147.93L619.07,149.55L618.13,148.15L618.17,147.53L616.34,147.44L614.77,147.16L611.15,147.94L613.22,149.63L611.70,150.11L610.03,150.11L608.45,148.57L607.88,149.23L608.55,151.02L610.05,152.43L608.92,153.09L610.59,154.47L612.07,155.34L612.12,157.04L609.34,156.24L610.23,157.77L608.33,158.09L609.46,160.73L607.47,160.77L605.01,159.46L603.89,157.07L603.36,155.07L602.19,153.69L600.65,151.98L600.45,151.12L599.94,150.92L599.88,150.26L598.22,149.25L597.96,147.82L598.21,145.77L598.62,144.84L598.12,144.37L597.48,144.13L596.64,143.16L595.35,142.56L592.53,141.45L590.79,140.37L588.04,139.48L585.53,137.27L586.13,137.04L584.76,135.79L584.71,134.77L582.77,134.30L581.86,135.59L580.97,134.59L581.04,133.55L581.14,133.50L581.81,133.23L579.43,132.79L576.98,133.86L577.15,135.34L576.78,136.20L577.76,137.72L580.58,139.24L582.09,141.72L585.43,144.13L587.77,144.12L588.51,144.78L587.67,145.38L590.36,146.46L592.56,147.37L595.13,148.93L595.44,149.49L594.88,150.57L593.22,149.16L590.60,148.67L589.35,150.61L591.51,151.72L591.15,153.29L589.90,153.47L588.30,156.04L587.05,156.27L587.06,155.35L587.68,153.74L588.33,153.11L587.16,151.37L586.24,149.86L585.00,149.48L584.11,148.18L582.18,147.64L580.88,146.43L578.66,146.24L576.32,144.88L573.57,142.93L571.53,141.20L570.60,138.24L569.11,137.89L566.67,136.90L565.29,137.31L563.55,138.70L562.31,138.92L559.59,140.61L553.67,139.80L549.30,140.78L548.96,142.58L549.12,144.33L546.28,146.32L542.44,146.96L542.17,147.97L540.32,149.63L539.16,152.07L540.33,153.79L538.60,155.12L537.95,157.07L535.69,157.67L533.56,159.98L529.76,160.02L526.89,159.97L525.01,161.03L523.87,162.16L522.40,161.91L521.29,160.90L520.44,159.17L517.64,158.71L516.43,159.48L514.85,159.06L513.31,159.39L513.76,157.05L513.48,155.20L512.14,154.92L511.42,153.79L511.66,151.83L512.85,150.73L513.07,149.52L513.70,147.72L513.63,146.45L513.03,145.37L512.90,144.36L513.05,142.22L511.82,140.92L516.06,138.76L519.73,139.30L523.76,139.28L526.96,139.79L529.44,139.63L534.29,139.73L535.85,137.93L536.42,131.96L533.32,128.81L531.11,127.29L526.53,126.13L526.22,123.95L530.11,123.29L535.15,124.07L534.19,120.67L537.04,121.96L544.01,119.62L544.92,117.16L547.54,116.56L549.94,115.96L551.49,115.14L554.12,110.72L558.23,109.47L560.72,109.55L561.30,108.92L563.81,108.76L564.37,109.42L566.40,107.94L565.72,106.81L565.58,105.11L564.36,103.45L564.27,100.38L564.77,99.57L565.63,98.67L568.27,98.48L569.33,97.66L571.74,96.81L571.64,98.35L570.75,99.33L571.11,100.17L572.74,100.62L572.01,101.75L571.11,101.43L568.95,103.59L569.77,105.05L569.81,106.21L572.85,106.91L572.82,107.97L575.87,107.41L577.56,106.59L580.94,107.77L582.36,108.73L584.40,107.85L589.09,106.46L592.87,105.45L595.86,105.95L596.09,106.68L598.98,106.72L599.67,105.40L603.80,104.43L603.16,101.91L603.27,99.65L604.74,97.76L607.57,96.74L609.96,98.98L612.37,98.92L612.94,96.62L613.28,94.85L612.18,95.23L610.28,94.16L610.02,92.44L613.81,91.60L617.59,91.17L620.84,91.66L623.94,91.57L627.36,89.91L624.21,88.49L618.77,88.73L613.49,89.83L608.61,90.46L606.87,88.83L603.96,87.84L604.63,84.89L603.18,82.18L604.61,80.43L607.33,78.54L614.19,75.29L616.19,74.67L615.89,73.40L611.71,71.98L606.54,72.83L603.64,74.92L604.10,76.76L599.34,79.17L593.54,81.75L591.36,85.98L593.50,88.09L596.36,89.76L593.61,93.14L590.49,93.84L589.34,98.88L587.64,101.69L584.01,101.40L582.30,103.78L578.83,103.91L577.87,101.08L575.36,97.67L573.09,93.43L571.07,91.59L565.15,95.06L561.15,95.76L556.99,94.23L555.92,91.01L554.97,84.08L557.74,82.15L565.66,79.64L571.58,76.54L577.07,72.36L584.29,66.57L589.31,64.31L597.55,60.55L604.14,59.23L609.07,59.39L613.64,56.91L619.11,57.04L624.49,56.44L633.88,58.64L630.01,59.44L633.31,61.33L636.40,60.28L641.32,62.10L649.54,62.81L660.88,66.20L663.18,67.63L663.38,69.62L660.05,71.20L655.15,72.00L641.75,69.72L639.55,70.10L644.44,72.30L644.83,76.76L648.70,77.67L651.04,78.45L651.43,77.00L649.55,75.66L651.53,74.57L658.78,76.44L661.31,75.71L659.29,73.51L666.28,70.57L669.05,70.75L671.85,71.79L673.59,69.73L671.10,67.94L672.57,66.15L670.36,64.29L678.75,65.25L680.46,66.93L676.67,67.30L676.69,68.97L679.05,70.00L683.68,69.35L684.41,67.43L690.69,66.00L701.15,63.43L703.41,63.58L700.46,65.40L704.18,65.71L706.33,64.68L711.95,64.60L716.40,63.36L719.83,65.16L723.23,63.18L720.09,61.44L721.65,60.45L730.51,61.36L734.67,62.30L745.53,65.72L747.54,64.15L744.49,62.57L744.41,61.93L740.79,61.64L741.78,60.21L740.17,57.87L740.09,56.91L745.62,54.20L747.58,51.47L749.82,50.88L757.76,51.67L758.38,53.34L755.54,55.77L757.41,56.73L758.37,58.83L757.69,62.94L761.01,64.77L759.71,66.78L753.84,71.04L757.27,71.48L758.46,70.40L761.76,69.63L762.56,68.15L765.16,66.72L763.41,65.01L764.81,63.03L761.53,62.78L760.80,61.12L763.20,58.10L759.30,55.66L764.67,53.64L763.98,51.50L765.48,51.43L767.05,53.10L765.87,55.99L769.08,56.54L767.70,54.38L772.73,53.20L778.96,53.04L784.50,54.75L781.83,52.25L781.53,49.05L786.76,48.45L793.97,48.58L800.47,48.19L798.03,46.62L801.50,44.65L804.94,44.57L810.77,43.08L818.70,42.68L819.71,41.86L827.58,41.58L830.03,42.25L836.77,40.66L842.28,40.71L843.11,39.42L845.97,38.14L853.06,36.91L858.20,37.88L854.12,38.62L860.91,39.08L861.72,40.56L864.46,39.83L873.23,39.87L879.99,41.34L882.40,42.46L881.66,44.02L878.34,44.90L870.46,46.57L868.20,47.46L871.93,47.88L876.35,48.64L879.05,48.07L880.59,49.99L881.90,49.22L886.70,48.74L896.33,49.24L897.06,50.64L909.61,51.08L909.77,48.79L916.14,49.32L920.93,49.30L925.77,50.89L927.16,52.81L925.37,54.06L929.14,56.42L933.86,57.64L936.76,54.49L941.58,55.84L946.68,55.03L952.49,55.96L954.70,55.12L959.61,55.54L957.44,52.75L961.40,51.45L988.50,53.40L991.05,55.18L998.90,57.47L1011.02,56.90L1016.99,57.40L1019.49,58.64L1019.13,60.83L1022.82,61.69L1026.84,61.07L1032.16,61.00L1037.83,61.59L1043.51,61.25L1048.73,63.92L1052.45,62.96L1050.03,61.04L1051.36,59.71L1060.93,60.55L1067.17,60.37L1075.80,61.80M0.00,63.11M258.48,37.44L257.12,37.53L251.49,37.33L250.69,36.50L256.73,36.54L258.84,37.10L258.48,37.44M209.44,36.91L203.84,37.77L199.40,36.80L201.82,35.85L206.21,35.54L210.44,36.01L209.44,36.91M614.17,36.44L607.47,37.66L602.18,36.97L604.24,36.20L602.44,35.24L608.65,34.63L609.84,35.76L614.17,36.44M211.01,34.20L207.35,34.78L202.37,34.77L202.43,34.35L205.50,33.45L207.11,33.59L211.01,34.20M252.51,35.83L248.07,36.45L245.63,35.75L244.34,34.63L244.10,33.38L247.99,33.51L249.74,33.70L253.33,34.74L252.51,35.83M239.82,35.02L240.98,36.28L236.09,35.94L231.15,34.97L224.47,34.86L227.36,33.97L223.75,33.25L223.52,32.09L229.42,32.51L237.53,33.60L239.82,35.02M855.23,35.08L838.32,36.24L843.79,32.30L846.26,31.96L848.51,32.15L856.11,33.86L855.23,35.08M594.75,30.90L604.63,33.13L597.08,34.31L595.41,36.52L592.79,37.09L591.36,39.57L587.74,39.69L581.28,37.86L584.01,36.79L579.51,35.93L573.67,33.39L571.34,31.04L579.51,29.97L581.15,31.02L585.43,30.98L586.56,29.95L590.97,29.85L594.75,30.90M616.34,28.78L622.23,29.83L617.78,31.44L609.07,31.80L600.23,31.30L599.69,30.47L595.39,30.42L592.11,29.04L601.37,28.20L605.72,28.93L608.76,28.03L616.34,28.78M693.41,28.36L689.38,28.75L686.68,28.98L686.26,29.47L682.76,29.97L679.51,29.26L681.22,28.32L674.54,28.23L680.40,27.69L684.95,27.65L685.57,28.46L687.29,27.74L690.12,27.24L694.57,27.90L693.41,28.36M839.82,33.36L833.27,33.73L824.92,32.87L819.93,31.72L817.63,29.57L813.54,28.98L821.34,26.92L827.82,26.25L833.65,27.76L840.56,30.66L839.82,33.36M278.95,31.02L282.55,31.99L278.44,32.88L272.90,35.14L267.58,35.35L261.37,34.97L258.14,33.75L258.19,32.66L260.56,31.86L255.08,31.88L251.77,30.89L249.87,29.52L251.96,28.19L254.03,27.28L257.11,27.07L255.79,26.38L262.77,26.23L266.60,27.83L271.66,28.47L276.57,29.04L278.95,31.02M334.50,20.68L342.51,20.92L348.96,21.30L354.45,22.12L354.32,22.91L347.00,24.22L339.74,24.82L337.03,25.50L343.56,25.48L336.48,27.30L331.60,28.15L326.45,30.60L320.27,31.10L318.35,31.71L309.27,32.03L313.41,32.41L311.33,32.94L313.82,34.42L310.97,35.45L306.33,36.30L304.91,37.48L300.72,38.37L301.14,39.05L306.27,38.93L306.33,39.66L298.32,41.47L290.48,40.64L281.67,41.10L277.20,40.74L271.53,40.58L271.15,39.14L276.70,38.47L275.22,36.30L277.06,36.09L285.07,37.38L280.98,35.46L276.12,34.89L278.55,33.72L283.86,33.01L284.71,31.96L280.48,30.79L279.20,29.25L287.40,29.38L289.78,29.70L294.45,28.61L287.70,28.26L277.21,28.45L271.90,27.43L269.40,26.22L265.90,25.34L265.24,24.31L269.70,23.75L273.20,23.65L279.09,23.16L283.50,22.05L287.22,22.20L290.46,23.04L292.74,21.42L296.70,20.94L302.08,20.61L311.25,20.49L312.85,20.81L321.51,20.30L328.00,20.49L334.50,20.68M458.70,19.44L477.46,21.82L471.92,22.97L460.45,23.11L444.29,23.40L445.81,23.93L456.43,23.60L465.46,24.64L471.30,23.72L473.79,24.80L470.50,26.54L478.13,25.43L492.69,24.26L501.69,24.84L503.37,26.13L491.15,28.26L489.45,28.95L479.86,29.47L486.80,29.61L483.30,31.80L480.89,33.74L480.98,37.09L484.58,39.05L479.89,39.17L474.96,40.12L480.50,41.71L481.20,44.25L477.99,44.53L481.88,47.11L475.22,47.33L478.69,48.55L477.71,49.61L473.49,50.07L469.30,50.08L473.06,52.11L473.10,53.45L467.17,52.21L465.63,53.01L469.68,53.76L473.61,55.59L474.74,58.01L469.39,58.59L467.08,57.43L463.37,55.71L464.39,57.74L460.92,59.32L468.82,59.45L472.96,59.61L464.91,62.22L456.76,64.59L447.98,65.63L444.67,65.64L441.56,66.79L437.39,69.96L430.95,72.07L428.87,72.19L424.88,72.92L420.57,73.62L418.00,75.48L417.95,77.58L416.43,79.55L411.54,81.95L412.75,84.30L411.40,86.78L409.86,89.71L405.64,89.89L401.21,87.44L395.21,87.43L392.30,85.78L390.29,82.85L385.10,79.12L383.58,77.16L383.17,74.47L379.02,71.70L380.10,69.49L378.09,68.43L381.06,64.93L385.57,63.81L386.76,62.55L387.39,60.21L383.95,61.28L382.32,61.72L379.63,62.15L375.95,61.17L375.75,59.13L376.92,57.54L379.71,57.49L385.83,58.29L380.67,56.39L377.98,55.36L375.00,55.78L372.50,55.03L375.84,52.24L374.02,51.13L371.64,49.05L368.02,45.87L364.21,44.70L364.24,43.45L356.20,41.69L349.83,41.47L341.80,41.59L334.49,41.82L331.00,40.86L325.80,38.97L333.67,38.03L339.71,37.87L326.88,37.09L320.10,35.87L320.53,34.70L331.88,33.26L342.87,31.81L344.03,30.73L335.93,29.65L338.55,28.45L348.93,26.36L353.29,26.04L352.05,24.69L359.16,23.90L368.38,23.43L377.59,23.40L380.87,24.34L388.83,22.68L395.99,23.81L400.20,24.04L406.43,25.02L399.30,23.40L399.71,22.12L409.78,20.32L420.31,20.46L424.13,19.35L434.74,19.06L458.70,19.44" fill="none" stroke="#a6aaa0" stroke-width=".65" stroke-linejoin="round"/></svg>
